<?xml version="1.0" encoding="UTF-8" standalone="no"?>
<svg
   version="1.0"
   width="6000"
   height="6000"
   viewBox="0 0 12000 12000"
   preserveAspectRatio="xMidYMid"
   id="svg4"
   xmlns="http://www.w3.org/2000/svg"
   xmlns:svg="http://www.w3.org/2000/svg">
  <defs
     id="defs4" />
  <g
     id="layer101"
     fill="#000000"
     stroke="none">
    <path
       d="m 9615,4213 c 80,-197 153,-439 209,-688 60,-270 79,-405 80,-567 1,-134 -1,-149 -20,-175 -26,-34 -57,-40 -82,-15 -15,15 -21,44 -30,138 -14,146 -31,216 -81,319 -73,153 -176,262 -311,330 -93,47 -172,65 -281,65 -353,0 -653,-236 -745,-585 -22,-82 -24,-282 -5,-410 68,-467 306,-1022 648,-1513 255,-366 603,-726 922,-955 l 81,-59 81,59 c 236,169 533,454 732,703 498,621 811,1326 853,1920 8,114 -7,223 -45,331 -41,115 -86,184 -186,285 -80,81 -103,97 -195,142 -125,60 -216,82 -342,82 -256,0 -459,-134 -583,-385 -55,-111 -73,-177 -87,-327 -9,-92 -15,-122 -30,-138 -42,-45 -100,6 -112,97 -25,193 122,899 263,1258 21,55 38,101 36,103 -1,1 -40,-7 -86,-17 -197,-47 -401,-47 -597,-1 -101,24 -96,24 -87,3 z"
       id="path1" />
    <path
       d="m 1630,3988 c 0,-2 9,-27 20,-56 69,-182 220,-949 237,-1203 5,-79 4,-88 -16,-108 -24,-24 -59,-27 -85,-8 -15,11 -21,35 -27,108 -27,307 -204,569 -474,704 -146,72 -224,90 -395,89 -127,-1 -156,-4 -233,-27 -415,-127 -674,-510 -627,-928 49,-428 389,-749 820,-776 238,-14 464,72 658,250 39,37 79,67 87,67 21,0 55,-36 55,-60 0,-21 -14,-33 -107,-88 -338,-200 -491,-622 -368,-1009 59,-186 210,-375 380,-475 215,-127 484,-155 720,-77 256,85 470,300 550,552 123,387 -30,809 -368,1009 -93,55 -107,67 -107,88 0,24 34,60 55,60 8,0 48,-30 87,-67 194,-178 420,-264 658,-250 558,34 935,555 795,1098 -74,285 -302,514 -602,606 -77,23 -106,26 -233,27 -171,1 -249,-17 -395,-89 -164,-82 -295,-211 -380,-376 -52,-101 -95,-253 -95,-336 0,-77 -21,-113 -67,-113 -39,0 -63,34 -63,88 0,192 165,1046 239,1243 12,29 19,54 18,55 -1,1 -31,-4 -67,-11 -130,-27 -294,-37 -413,-26 -102,10 -195,25 -239,37 -10,3 -18,4 -18,2 z"
       id="path2" />
  </g>
  <g
     id="layer102"
     fill="#d2000f"
     stroke="none">
    <path
       d="M 1921,11773 C 1580,11087 1064,10443 434,9917 l -101,-84 131,-109 c 169,-140 591,-562 730,-729 295,-354 534,-717 729,-1102 40,-79 74,-143 77,-143 3,0 37,64 77,143 195,385 434,748 729,1102 139,167 561,589 730,729 l 131,109 -101,84 c -630,526 -1146,1170 -1487,1856 -41,81 -76,147 -79,147 -3,0 -38,-66 -79,-147 z"
       id="path3" />
    <path
       d="M 9814,11668 C 9049,10892 8473,9969 8280,9210 c -59,-229 -74,-347 -74,-560 -1,-192 0,-196 31,-288 42,-124 101,-222 187,-308 85,-85 180,-143 301,-183 131,-44 216,-54 395,-48 176,5 252,22 386,87 151,73 277,193 345,329 52,104 61,146 65,304 2,81 8,156 14,168 24,44 106,48 135,6 11,-16 15,-51 15,-143 0,-192 42,-322 146,-455 93,-118 254,-220 424,-270 57,-16 112,-23 230,-26 179,-6 264,4 395,48 121,40 216,98 301,183 86,86 145,184 187,308 31,92 32,96 31,288 0,213 -15,332 -74,560 -167,654 -620,1436 -1247,2152 -111,126 -461,488 -473,488 -3,0 -87,-82 -186,-182 z"
       id="path4" />
  </g>
</svg>
